<svg width="40" height="40" xmlns="http://www.w3.org/2000/svg" xmlns:svg="http://www.w3.org/2000/svg">
    <g class="layer">
        <title>Layer 1</title>
        <path fill-rule="evenodd" clip-rule="evenodd" d="m32.0018,30.57043l-16.13071,4.77082c-0.4928,0.14593 -0.96511,-0.28036 -0.86155,-0.77764l5.76259,-27.59732c0.10776,-0.51637 0.82114,-0.59804 1.04621,-0.12011l10.6698,22.65719c0.20122,0.42769 -0.02834,0.9318 -0.48634,1.06706zm2.76618,-1.12572l-12.3541,-26.23418l0,-0.00056c-0.30982,-0.65585 -0.95641,-1.08859 -1.68915,-1.129c-0.75183,-0.04378 -1.42535,0.3188 -1.80533,0.93592l-13.39872,21.70162c-0.41506,0.67661 -0.40692,1.51067 0.02357,2.17858l6.5495,10.14594c0.39008,0.60561 1.0667,0.95613 1.76969,0.95613c0.19925,0 0.39963,-0.02834 0.59663,-0.08672l19.01135,-5.62283c0.58232,-0.17203 1.05856,-0.58429 1.30777,-1.13012c0.24836,-0.54668 0.24443,-1.17174 -0.01123,-1.71477l0.00002,-0.00001z" fill="#FFFFFF" id="svg_1"/>
    </g>
</svg>